<svg width="32" height="32" viewBox="0 0 32 32" fill="none" xmlns="http://www.w3.org/2000/svg">
<path d="M16.781 29H15.219C14.7882 29.001 14.367 28.8734 14.0091 28.6336C13.6512 28.3938 13.373 28.0528 13.21 27.654L12.5 25.932C12.4916 25.9107 12.4789 25.8914 12.4628 25.8753C12.4466 25.8591 12.4273 25.8464 12.406 25.838L11.584 25.497C11.563 25.4879 11.5404 25.4831 11.5175 25.4831C11.4946 25.4831 11.472 25.4879 11.451 25.497L9.73201 26.213C9.33483 26.3797 8.89698 26.4241 8.47444 26.3405C8.0519 26.257 7.66388 26.0493 7.36001 25.744L6.26001 24.644C5.95486 24.34 5.74726 23.9521 5.66372 23.5296C5.58018 23.107 5.6245 22.6692 5.79101 22.272L6.50701 20.552C6.51571 20.5311 6.52018 20.5087 6.52018 20.486C6.52018 20.4634 6.51571 20.4409 6.50701 20.42L6.16601 19.598C6.15746 19.5769 6.14473 19.5576 6.12858 19.5415C6.11243 19.5253 6.0932 19.5126 6.07202 19.504L4.34901 18.794C3.94913 18.6312 3.60703 18.3525 3.36666 17.9938C3.1263 17.6351 2.99862 17.2128 3.00001 16.781V15.219C2.99909 14.7884 3.12656 14.3673 3.36613 14.0094C3.6057 13.6516 3.94651 13.3733 4.34501 13.21L6.068 12.5C6.08918 12.4915 6.10843 12.4787 6.12458 12.4626C6.14073 12.4464 6.15346 12.4272 6.16201 12.406L6.50302 11.584C6.52004 11.5416 6.52004 11.4944 6.50302 11.452L5.78601 9.73201C5.61935 9.33476 5.57506 8.89683 5.65879 8.47425C5.74253 8.05168 5.95047 7.66368 6.25601 7.36L7.35601 6.26002C7.65954 5.95456 8.04734 5.74665 8.46974 5.66291C8.89214 5.57918 9.32992 5.62342 9.72702 5.78999L11.448 6.50703C11.4904 6.52405 11.5377 6.52405 11.58 6.50703L12.403 6.16603C12.4239 6.15753 12.443 6.14489 12.4589 6.12892C12.4749 6.11294 12.4875 6.09394 12.496 6.07301L13.206 4.34901C13.3689 3.94913 13.6475 3.60702 14.0062 3.36665C14.3649 3.12628 14.7872 2.99862 15.219 3.00001H16.781C17.2116 2.99923 17.6327 3.12673 17.9905 3.36628C18.3483 3.60584 18.6267 3.94656 18.79 4.34498L19.5 6.068C19.5083 6.08915 19.5209 6.10837 19.5369 6.12452C19.5529 6.14068 19.572 6.15344 19.593 6.162L20.415 6.503C20.4361 6.51189 20.4587 6.51649 20.4815 6.51649C20.5044 6.51649 20.527 6.51189 20.548 6.503L22.268 5.787C22.6654 5.62088 23.1032 5.57689 23.5256 5.66059C23.9481 5.7443 24.336 5.95195 24.64 6.25703L25.74 7.35701C26.0453 7.66107 26.253 8.04921 26.3368 8.47187C26.4205 8.89453 26.3764 9.33252 26.21 9.72999L25.493 11.45C25.4841 11.4711 25.4795 11.4936 25.4795 11.5165C25.4795 11.5393 25.4841 11.562 25.493 11.583L25.834 12.404C25.8426 12.4252 25.8553 12.4444 25.8714 12.4606C25.8876 12.4767 25.9068 12.4894 25.928 12.498L27.651 13.208C28.0506 13.3708 28.3924 13.6491 28.6328 14.0074C28.8731 14.3657 29.001 14.7876 29 15.219V16.781C29.001 17.2118 28.8734 17.6331 28.6336 17.991C28.3939 18.3489 28.0528 18.627 27.654 18.79L25.932 19.5C25.9108 19.5086 25.8916 19.5213 25.8754 19.5374C25.8593 19.5536 25.8466 19.5728 25.838 19.594L25.497 20.416C25.48 20.4584 25.48 20.5056 25.497 20.548L26.214 22.268C26.3807 22.6653 26.425 23.1032 26.3412 23.5258C26.2575 23.9483 26.0496 24.3363 25.744 24.64L24.644 25.74C24.3406 26.0456 23.9528 26.2536 23.5303 26.3373C23.1079 26.421 22.6701 26.3767 22.273 26.21L20.552 25.493C20.5094 25.4755 20.4616 25.4755 20.419 25.493L19.598 25.834C19.5769 25.8423 19.5576 25.8549 19.5415 25.8709C19.5253 25.8868 19.5126 25.906 19.504 25.927L18.794 27.651C18.631 28.0508 18.3524 28.3928 17.9937 28.6332C17.635 28.8735 17.2128 29.0013 16.781 29ZM11.518 23.483C11.8032 23.4831 12.0856 23.5395 12.349 23.649L13.172 23.99C13.7047 24.2129 14.128 24.6369 14.35 25.17L15.059 26.893C15.0721 26.9247 15.0943 26.9518 15.1228 26.9708C15.1512 26.9899 15.1847 27 15.219 27H16.781C16.8153 27 16.8488 26.9899 16.8773 26.9708C16.9058 26.9518 16.9279 26.9247 16.941 26.893L17.65 25.17C17.8714 24.6365 18.2949 24.2123 18.828 23.99L19.65 23.649C19.914 23.5386 20.1974 23.4818 20.4835 23.4818C20.7697 23.4818 21.053 23.5386 21.317 23.649L23.037 24.366C23.0687 24.3792 23.1036 24.3826 23.1373 24.3758C23.171 24.369 23.2018 24.3524 23.226 24.328L24.326 23.228C24.3505 23.2041 24.3671 23.1734 24.3737 23.1398C24.3803 23.1062 24.3766 23.0714 24.363 23.04L23.647 21.319C23.427 20.7851 23.427 20.1859 23.647 19.652L23.988 18.83C24.2103 18.2969 24.6345 17.8733 25.168 17.652L26.891 16.943C26.9227 16.9299 26.9498 16.9078 26.9688 16.8793C26.9879 16.8508 26.998 16.8173 26.998 16.783V15.221C26.9981 15.1869 26.988 15.1535 26.9689 15.1251C26.9498 15.0968 26.9227 15.0748 26.891 15.062L25.168 14.352C24.6345 14.1307 24.2103 13.7072 23.988 13.174L23.647 12.352C23.5366 12.088 23.4798 11.8047 23.4798 11.5185C23.4798 11.2323 23.5366 10.949 23.647 10.685L24.363 8.96504C24.3766 8.93331 24.3804 8.89822 24.3738 8.86433C24.3672 8.83044 24.3505 8.79934 24.326 8.77504L23.226 7.675C23.2018 7.65063 23.171 7.63404 23.1373 7.62727C23.1036 7.6205 23.0687 7.6239 23.037 7.63704L21.317 8.35402C21.0531 8.46466 20.7697 8.52162 20.4835 8.52162C20.1973 8.52162 19.914 8.46466 19.65 8.35402L18.828 8.01399C18.2949 7.79174 17.8714 7.36751 17.65 6.834L16.941 5.11103C16.9279 5.07936 16.9058 5.05226 16.8773 5.03321C16.8488 5.01416 16.8153 5.00402 16.781 5.00404H15.219C15.1847 5.00402 15.1512 5.01416 15.1228 5.03321C15.0943 5.05226 15.0721 5.07936 15.059 5.11103L14.349 6.834C14.1277 7.3672 13.7046 7.79133 13.172 8.01399L12.349 8.35499C12.0852 8.46539 11.802 8.52229 11.516 8.52229C11.23 8.52229 10.9468 8.46539 10.683 8.35499L8.96301 7.63801C8.93119 7.62452 8.89604 7.62092 8.86215 7.6277C8.82826 7.63448 8.79719 7.65135 8.77301 7.67604L7.67302 8.77601C7.64861 8.79996 7.63194 8.8307 7.62516 8.86421C7.61839 8.89772 7.62182 8.93246 7.63501 8.964L8.35202 10.685C8.46266 10.949 8.51963 11.2323 8.51963 11.5185C8.51963 11.8047 8.46266 12.088 8.35202 12.352L8.012 13.174C7.90318 13.4388 7.74284 13.6793 7.54026 13.8815C7.33769 14.0837 7.09694 14.2436 6.83201 14.352L5.109 15.061C5.07733 15.0741 5.05025 15.0963 5.0312 15.1248C5.01215 15.1533 5.00199 15.1868 5.00201 15.221V16.783C5.00192 16.8172 5.01207 16.8506 5.03114 16.8789C5.05021 16.9073 5.07733 16.9292 5.109 16.942L6.83201 17.652C7.09694 17.7604 7.33769 17.9203 7.54026 18.1226C7.74284 18.3248 7.90318 18.5653 8.012 18.83L8.35202 19.652C8.57248 20.1861 8.57248 20.7859 8.35202 21.32L7.63601 23.039C7.62289 23.0707 7.61939 23.1055 7.62597 23.1391C7.63256 23.1727 7.64893 23.2037 7.67302 23.228L8.77301 24.328C8.79726 24.3523 8.82814 24.3688 8.86177 24.3756C8.89539 24.3823 8.93028 24.379 8.96202 24.366L10.682 23.649C10.947 23.5389 11.2311 23.4825 11.518 23.483ZM16 21.5C14.9122 21.5 13.8488 21.1774 12.9444 20.5731C12.0399 19.9687 11.3349 19.1097 10.9187 18.1047C10.5024 17.0998 10.3935 15.9939 10.6057 14.927C10.8179 13.8601 11.3417 12.8801 12.1109 12.1109C12.8801 11.3417 13.8601 10.8179 14.927 10.6057C15.9939 10.3934 17.0998 10.5024 18.1048 10.9187C19.1098 11.3349 19.9688 12.0399 20.5731 12.9443C21.1774 13.8488 21.5 14.9122 21.5 16C21.4984 17.4582 20.9184 18.8562 19.8873 19.8873C18.8562 20.9184 17.4582 21.4984 16 21.5ZM16 12.5C15.3078 12.5 14.6311 12.7053 14.0555 13.0899C13.48 13.4744 13.0313 14.0211 12.7664 14.6606C12.5015 15.3001 12.4322 16.0039 12.5673 16.6828C12.7023 17.3617 13.0357 17.9854 13.5251 18.4749C14.0146 18.9643 14.6383 19.2977 15.3172 19.4328C15.9961 19.5678 16.6999 19.4985 17.3394 19.2336C17.9789 18.9687 18.5256 18.5201 18.9102 17.9445C19.2947 17.369 19.5 16.6922 19.5 16C19.5 15.0718 19.1313 14.1815 18.4749 13.5252C17.8185 12.8688 16.9283 12.5 16 12.5Z" 
fill="black"/>
</svg>
